# xmcd
#
# Track frame offsets:
#	150
#	17819
#	35276
#	51871
#	68540
#	88172
#	102767
#	122324
#	138282
#	155864
#	169021
#	184766
#	204649
#	221181
#	236101
#	252633
#	267116
#	280849
#	299789
#
# Disc length: 4174 seconds
#
# Revision: 0
# Processed by: cddbd v1.4PL0 Copyright (c) Steve Scherf et al.
# Submitted via: EasyCDDAExtractor 4.6.0.1
#
DISCID=22104c13
DTITLE=Kenny Rogers - All His Best
DYEAR=1900
DGENRE=Country
TTITLE0=Lady
TTITLE1=We've got Tonight (duet with Sheena Easton)
TTITLE2=Don't Fall in Love With a Dreamer
TTITLE3=Lucille
TTITLE4=Coward of the County
TTITLE5=Love the World Away
TTITLE6=Sweet Music Man
TTITLE7=The Gambler
TTITLE8=All My Life
TTITLE9=Love or Something Like It
TTITLE10=I Don't Need You
TTITLE11=Through the Years
TTITLE12=You Decorated my Life
TTITLE13=Share Your Love With Me
TTITLE14=Love Will Turn you Around
TTITLE15=Daytime Friends
TTITLE16=What are We doin' in Love (duet with Dottie West)
TTITLE17=She Believes in Me
TTITLE18=Ruby, Don't Take Your Guns To Town
EXTD=
EXTT0=
EXTT1=
EXTT2=
EXTT3=
EXTT4=
EXTT5=
EXTT6=
EXTT7=
EXTT8=
EXTT9=
EXTT10=
EXTT11=
EXTT12=
EXTT13=
EXTT14=
EXTT15=
EXTT16=
EXTT17=
EXTT18=
PLAYORDER=
